<?xml version="1.0" encoding="UTF-8"?>
<!-- Generator: Adobe Illustrator 16.0.0, SVG Export Plug-In . SVG Version: 6.00 Build 0)  -->
<!DOCTYPE svg PUBLIC "-//W3C//DTD SVG 1.1//EN" "http://www.w3.org/Graphics/SVG/1.1/DTD/svg11.dtd">
<svg version="1.1" id="Capa_1" xmlns="http://www.w3.org/2000/svg" xmlns:xlink="http://www.w3.org/1999/xlink" x="0px" y="0px" width="71px" height="71px" viewBox="41.417 23.047 271 71" enable-background="new 41.417 23.047 271 71" xml:space="preserve">
<g>
	<polygon fill="#FFFFFF" points="113.389,43.451 113.282,43.266 113.174,43.078 71.877,43.078 66.645,52.237 71.877,61.396    88.834,61.396 90.471,64.249 89.18,66.504 68.956,66.504 60.803,52.237 68.956,37.969 110.257,37.969 110.149,37.783    110.042,37.593 105.5,29.643 105.501,29.643 102.201,23.865 62.897,23.865 43.252,58.242 51.704,73.032 51.811,73.217    51.917,73.405 93.21,73.405 98.446,64.247 93.21,55.084 76.239,55.087 74.611,52.237 75.902,49.978 96.133,49.978 104.287,64.247    96.133,78.516 54.837,78.516 54.945,78.702 55.052,78.891 62.897,92.62 102.201,92.62 121.836,58.242  "/>
</g>
</svg>